<?xml version="1.0" encoding="UTF-8"?><svg id="Layer_2" xmlns="http://www.w3.org/2000/svg" viewBox="0 0 300.23 340.04"><defs><style>.cls-1{fill:#af3c36;}.cls-2{fill:#34393d;}</style></defs><g id="Layer_1-2"><g><g><path class="cls-1" d="M145.23,298.88c.49-1.61-.41-3.31-2.02-3.8s-3.31,.41-3.8,2.02,.41,3.31,2.02,3.8,3.31-.41,3.8-2.02Z"/><circle class="cls-1" cx="159.02" cy="303.09" r="3.04"/><rect class="cls-1" x="151.67" y="278.16" width="8.84" height="8.84" rx=".99" ry=".99" transform="translate(-159.78 349.23) rotate(-73)"/><path class="cls-1" d="M172.22,314.11c-.93-1.44-2.28-3.69-2.58-4.99-.47-2.02-.34-5.22-4.18-10.89-.41-.61-.84-1.17-1.28-1.69,1.42-1.14,4.02-2.44,6.33-2.51,.36-.01,.68,.26,.71,.62,.19,2.24-.67,4.38-1.69,5.82-.27,.39,.19,.88,.59,.63,1.16-.73,2.39-1.95,3.26-3.77,.97-2.03,1.17-4.5,1.19-5.81,.01-.52-.39-.95-.91-.97-1.24-.05-3.58-.04-6.03,.54-2.34,.56-4.68,2.01-6.02,2.95-3.01-2.42-6.08-3.39-7.78-3.87-1.67-.55-4.76-1.47-8.61-1.14-.58-1.53-1.71-4.04-3.34-5.81-1.71-1.86-3.64-3.17-4.7-3.82-.44-.27-1.02-.14-1.3,.29-.71,1.1-1.93,3.26-2.26,5.48-.29,1.99,.04,3.7,.59,4.95,.19,.44,.85,.29,.84-.19-.03-1.76,.44-4.02,1.86-5.77,.23-.28,.64-.33,.94-.12,1.88,1.35,3.3,3.89,3.85,5.63-.65,.18-1.32,.41-2,.68-6.36,2.55-8.04,5.27-9.56,6.69-.98,.91-3.36,2.02-4.93,2.69-.71,.3-.92,1.2-.43,1.79,.74,.89,1.63,2.11,1.81,3.1,.18,.95-.63,2.44-1.42,3.62-.48,.72-.03,1.69,.83,1.78,1.17,.12,2.55,.45,3.37,1.31,.52,.55,1.07,1.61,1.91,2.9,5.55,8.46,18.19,12.49,27.76,8.49,1.43-.6,2.47-1.17,3.21-1.34,1.16-.26,2.49,.24,3.53,.8,.76,.41,1.68-.15,1.68-1.01,0-1.41,.17-3.1,.85-3.79,.71-.72,2.13-1.24,3.24-1.56,.74-.21,1.06-1.08,.65-1.72Zm-25.25-11.06l.2-.19c.09-.08,.2-.11,.32-.1,.39,.07,1.33,.23,1.92,.4h.01l.1,.03,.62,.19s.07,.02,.11,.04c.59,.19,1.45,.58,1.82,.74,.11,.05,.18,.14,.21,.26l.06,.27c.04,.17-.04,.35-.2,.42-.42,.19-1.21,.68-1.59,1.73-.5,1.38,1.25,2.83,3.16,3.52,.19,.07,.29,.27,.23,.46l-.36,1.19c-.06,.2-.27,.31-.47,.25l-.35-.11c-.14-.04-.29,0-.39,.11-.54,.61-2.55,2.49-5.71,1.52h-.04l-.04-.02c-3.16-.97-3.77-3.65-3.88-4.46-.02-.14-.12-.26-.26-.3l-.35-.11c-.2-.06-.31-.27-.25-.47l.36-1.19c.06-.19,.26-.3,.45-.25,1.96,.5,4.22,.28,4.58-1.15,.27-1.08-.11-1.92-.35-2.32-.09-.15-.06-.35,.07-.47Zm19.73,11.27c-.86,.99-2.99,3.08-6.89,4.88-.31,.14-.62,.28-.95,.42-8.75,3.66-20.14,.54-25.64-7.84-.2-.3-.38-.59-.55-.88-2.22-3.67-2.82-6.6-2.98-7.9-.06-.45,.07-.91,.35-1.27,.94-1.21,3.34-4.2,5.95-6.06,2.61-1.87,5.41-2.69,7.6-2.08,1.13,.32,2.1,1.02,2.8,2.16,2.05,3.36-.9,6.07-2.59,6.9-1.44,.7-3.04,1.88-3.87,2.8-1.52,1.67-2.75,4.26-2.38,5.76,.48,1.98,2.13,3.51,4.85,4.67,1.21,.52,2.31,.91,3.25,1.21,.94,.28,2.07,.56,3.37,.81,2.9,.56,5.12,.21,6.63-1.16,1.15-1.04,1.57-3.87,1.25-6.11-.18-1.23-.84-3.1-1.65-4.49-.95-1.63-1.87-5.52,1.71-7.17,1.21-.56,2.41-.6,3.53-.23,2.16,.71,4.02,2.95,5.14,5.97,1.11,3,1.43,6.83,1.54,8.35,.03,.46-.12,.9-.42,1.25Z"/><path class="cls-1" d="M161.2,265.87c-20.02-6.12-41.21,5.15-47.33,25.17-6.12,20.02,5.15,41.21,25.17,47.33,20.02,6.12,41.21-5.15,47.33-25.17,6.12-20.02-5.15-41.21-25.17-47.33Zm5.14,66.75c-8.15,4.33-17.49,5.23-26.32,2.53-8.82-2.7-16.07-8.67-20.4-16.82-4.33-8.15-5.23-17.49-2.53-26.32s8.67-16.07,16.82-20.4c8.15-4.33,17.49-5.23,26.32-2.53,8.82,2.7,16.07,8.67,20.4,16.82,4.33,8.15,5.23,17.49,2.53,26.32-2.7,8.82-8.67,16.07-16.82,20.4Z"/></g><g><path class="cls-2" d="M34.48,141.62c-.23-18.59-1.52-46.61-2.97-69.13,5.59-.12,13-.37,18.73-.94,1.89-.19,3.54,1.28,3.59,3.18,.16,6.6-.8,19.62-8.7,28.62-1.3,1.48-.05,3.81,1.9,3.52,32.57-4.79,37.03-46.02,35.9-62.46-.16-2.31-2.31-3.95-4.59-3.49-14.78,3.02-38.31,4.89-48.83,5.63-.21-2.17-.42-4.05-.62-5.61-.29-2.22-2.13-3.91-4.37-3.98-7.2-.23-16.73-.04-21.64,.08-1.75,.05-3.07,1.59-2.86,3.32,1.75,14,9.92,70.23,31.26,102.25,.96,1.45,3.23,.74,3.2-1Z"/><path class="cls-2" d="M105.76,56.08l-14.62,.84c-3.26,.19-5.91,2.72-6.24,5.97-4.54,45.64,7.45,69.94,16.3,81.06,1.01,1.27,3.03,.42,2.83-1.18-3.05-24.69,3.38-68.05,5.69-82.29,.39-2.4-1.54-4.54-3.97-4.4Z"/><path class="cls-2" d="M165.27,56.81h-18.22c-1.75,0-3.22,1.33-3.37,3.08-.31,3.45-1.03,9.6-2.64,17.4-3.44-6.49-6.44-11.98-8.32-15.4-1.22-2.22-3.82-3.29-6.25-2.58l-12.49,3.64c-3.24,.94-4.92,4.55-3.51,7.62,6.12,13.38,14.02,25.44,21.93,35.69-4.39,11.02-10.44,22.68-18.77,33.65-1.01,1.33,.57,3.06,1.98,2.18,7.77-4.84,17.47-12.99,26.59-23.97,8.67,9.81,16.4,16.94,20.58,20.6,1.34,1.17,3.42,.1,3.24-1.67-.48-4.81-2.35-13.73-8.86-27.7-1.11-2.39-2.28-4.83-3.48-7.3,7.04-11.57,12.83-25.09,15.73-40.24,.5-2.59-1.51-4.99-4.14-4.99Z"/><path class="cls-2" d="M174.51,62.64l-2.37,19.47c-.26,2.09,1.48,3.89,3.58,3.72,8.07-.66,26.93-3.71,45.19-17.6,2.46-1.87,1.28-5.79-1.8-5.98-13.61-.83-33.48-2.06-41.09-2.53-1.76-.11-3.29,1.17-3.5,2.92Z"/><path class="cls-2" d="M216,108.2c1.18,0,2.18-.83,2.41-1.99,.57-2.95,1.44-9.29,1.13-19.55-.08-2.71-2.98-4.38-5.37-3.1-12.89,6.86-30.6,12.66-40.51,15.64-2.37,.71-2.3,4.08,.09,4.71,14.97,3.91,35.85,4.28,42.26,4.29Z"/><path class="cls-2" d="M174.71,115.79c-2.61-.47-4.67,2.18-3.57,4.59,1.86,4.07,4.68,9.83,8.14,15.71,.72,1.22,2.12,1.87,3.51,1.63,26.44-4.56,35.35-9.93,41.2-14.74,1.05-.86,.38-2.54-.97-2.45-14.23,.95-37.39-2.77-48.31-4.74Z"/><path class="cls-2" d="M233.92,132.36c7.7,.1,36.11-.53,53.62-14.56,1.6-1.28,.39-3.85-1.62-3.47-12.24,2.33-23.76,3.33-32.7,2.35-2.27-.25-3.93-2.26-3.79-4.53,.66-10.53,2.98-39.77,8.98-56.95,.73-2.1-.76-4.32-2.98-4.45-7.38-.46-18.54-.91-24-1.12-1.79-.07-3.3,1.33-3.37,3.12-.52,13.27-2.08,63.4,2.96,77.56,.44,1.22,1.58,2.05,2.88,2.07Z"/><path class="cls-2" d="M81.4,21.5c9.5,4.61,18.18,6.65,26.39,7.15,1.47,5.02,4.3,12.55,9.45,20.17,.96,1.43,3.19,.72,3.14-1-.2-6.59,.29-13.38,1.48-19.71,3.26-.41,6.47-1,9.65-1.67,.55,6.57,1.88,14.75,5.05,20.83,.65,1.25,2.5,1.09,2.92-.26,.94-3.06,1.89-6.93,2.77-10.89l10.65-.92c-.1,4.82-.28,9.65-.56,13.99-.1,1.58,1.93,2.33,2.86,1.05,5.6-7.77,11.61-26.06,12.38-44.21,.05-1.12-.95-2.01-2.06-1.82-5.05,.86-9.12,1.59-11.18,1.96-.85,.15-1.46,.9-1.45,1.76,.06,3.09,.17,10.61,.11,19.21l-9.12,1.04c.85-4.33,1.52-8.13,1.89-10.32,.18-1.04-.59-2-1.65-2.05l-11.14-.54c-1-.05-1.84,.74-1.84,1.74-.01,1.16,0,2.81,.07,4.78C106.62,15.94,92.36,5.52,86.73,.63c-1.39-1.21-3.57-.59-4.11,1.18-1.3,4.25-3.09,11.28-2.82,17.27,.05,1.04,.65,1.98,1.59,2.43Z"/><path class="cls-2" d="M199.77,18.69c1.38-.73,.83-2.84-.73-2.81-8.65,.14-22.14-.36-27.71-.59-1.45-.06-2.7,1.02-2.85,2.47-.32,3.15-.65,8.38,.31,11.01,5.76-1.63,20.54-4.53,30.98-10.08Z"/><path class="cls-2" d="M193.75,35.5c.29,.02,.56-.09,.76-.3,.72-.77,2.23-3.13,2.04-9.31-.02-.61-.61-1.05-1.2-.88-4.99,1.45-17.44,4.11-23.22,5.32-.95,.2-1.02,1.54-.08,1.82,6.83,2.1,19.36,3.16,21.71,3.34Z"/><path class="cls-2" d="M170.26,37.53c.33,2.12,1.37,7.26,4.06,11.14,.16,.23,.43,.36,.71,.35,14.07-.51,23.36-6.76,26.85-9.57,.59-.47,.27-1.42-.48-1.45l-30.29-1.41c-.52-.02-.93,.43-.85,.94Z"/><path class="cls-2" d="M89.31,193.91c-13.64-2.33-30.95-9.95-39.51-17.25-.87-.74-.13-2.16,.97-1.87,12.42,3.28,27.2,.6,35.96-7.14,.63-.56,1-1.37,1-2.22,0-3.43-.41-9.03-.76-13.36-.19-2.37-2.95-3.56-4.81-2.09-5.03,3.97-14.69,9.36-29.97,9.22-15.88-.14-30.07-4.02-37.92-6.65-2.02-.68-3.74,1.6-2.55,3.36l6.52,9.66c.78,1.15,1.19,2.51,1.19,3.9,0,5.74,.56,21.61,6.7,25.47,6.6,4.15,26.25,4.66,36.38,3.28,1.64-.22,2.79,1.6,1.85,2.96-5.39,7.79-22.51,21.02-54.39,13.25-.87-.21-1.57,.7-1.15,1.48,7.15,13.43,26.1,25.55,51.11,21.65,24.48-3.81,32.5-26.33,32.26-40.36-.03-1.65-1.25-3.04-2.88-3.31Z"/><path class="cls-2" d="M151.94,147.3c-6.72,.48-13.57,1.99-17.76,3.05-2.44,.62-4.2,2.76-4.32,5.28-.25,4.92-.54,13.82-.16,24.62-3.18-.09-6.75-.1-10.47-.05,1.93-8.97,3.47-16.8,4.2-21.71,.29-1.92-1.22-3.65-3.16-3.6-9.99,.26-17.24-1.85-21.39-3.55-2.04-.83-4.27,.63-4.32,2.83-.17,7.33,.37,16.81,1.27,26.82-3.41,.17-6.45,.34-8.84,.48-2.05,.12-2.84,2.73-1.2,3.97,3.53,2.66,7.32,4.91,11.17,6.82,1.44,13.02,3.26,25.97,4.77,35.56,.53,3.35,5.25,3.58,6.12,.31,2.15-8.15,4.72-18.62,7.17-29.15,7.08,1.92,13.08,2.83,16.34,3.23,1.51,12.61,4.18,25.84,8.74,37.47,.99,2.52,4.71,1.9,4.82-.8,.94-23.18,6.35-68.2,9.66-88.69,.26-1.59-1.04-3-2.64-2.89Z"/><path class="cls-2" d="M217.36,159.3c-12.2-2.34-44.75-4.09-54.94-4.6-1.8-.09-3.4,1.14-3.77,2.9-5.87,27.66-4.22,57.93-1.88,71.34,.34,1.95,2.17,3.29,4.13,3,12.44-1.82,34.22-7.96,41.86-10.17,1.62-.47,3.34,.22,4.19,1.68,.84,1.45,2.02,3.46,3.42,5.84,1.84,3.12,6.61,1.98,6.83-1.63,1.14-18.7,3.08-52.45,3.16-64.72,.01-1.78-1.25-3.29-2.99-3.63Zm-12.96,18.6c-.64,8.68-1.23,18.16-1.53,23.03-.12,1.92-1.56,3.5-3.46,3.8l-19.01,2.96c-2.07,.32-4.06-.97-4.59-3-1.48-5.64-4.06-17.54-4.2-32.59-.02-2.7,2.49-4.69,5.1-4.04,5.92,1.49,16,3.94,24.37,5.53,2.04,.39,3.47,2.25,3.32,4.32Z"/><path class="cls-2" d="M194.34,183.01c-2.22-.41-6.81-1.21-9.84-1.36-.89-.04-1.61,.7-1.53,1.58,.2,2.27,.6,6.38,.97,8.27,.1,.52,.47,.94,.97,1.11,1.66,.54,5.49,1.36,8.59,.76,.58-.11,1.02-.56,1.14-1.14,.36-1.79,.72-5.64,.89-7.66,.06-.75-.45-1.42-1.19-1.56Z"/><path class="cls-2" d="M295.68,140.91l-45.6,2.13c.02-.5,.05-.97,.07-1.42,.09-1.96-1.5-3.57-3.46-3.51-6.06,.19-16.37,1.07-21.4,1.53-1.76,.16-3.09,1.65-3.05,3.42,.1,4.63,1.03,15.51,5.54,39.62,4.36,23.26,11.04,40.18,15.45,49.61,1.02,2.19,4.31,1.42,4.25-.99-.25-10.96-.56-27.94-.19-32.69,.34-4.27,1.24-22.68,1.97-38.19,5-.28,12.15-.5,18.28-.02,1.66,.13,2.76,1.81,2.2,3.38-2.17,6.1-6.41,12.86-14.64,17.29-1.5,.81-.9,3.08,.8,3.02,28.56-1,40.2-25.79,44.11-37.48,.97-2.89-1.28-5.85-4.33-5.71Z"/></g></g></g></svg>