<?xml version="1.0" encoding="UTF-8"?><svg id="Layer_2" xmlns="http://www.w3.org/2000/svg" viewBox="0 0 1010.03 42.18"><defs><style>.cls-1{fill:#989f89;}</style></defs><g id="Layer_1-2"><g><path class="cls-1" d="M91.7,8.25c-.04-.08-.06-.13-.06-.13,0,0,9.47,6.55,11.62,14.86,7.28-4.75,6.28-21.06,6.28-21.06,0,0,6.84,9.71,5.42,16.92,5.9-.68,11.71-4.32,11.71-4.32l-4.5,9.47s3.24,5.55,12.79,4.51c4.78-.52,20.56-2.07,26.32-2.07s74.53,.15,80,0c17.72-.47,30.37-7.03,30.37-7.03,0,0-.58,3.82,0,5.31,9.84,.32,33-15.51,33-15.51,0,0-3.03,7.53-9.21,13.94,11.04,8.65,41.92,7.53,54.54,1.95,24.64,5.58,40.94-5.1,40.94-5.1l9.57,4.39-8.34-14.53,15.27,8.66S407.86,9.31,403.16,0c1.97-.04,12.36,7.76,15.77,17.8,4.1-1.27,8-9.85,8-9.85,0,0,3.42,7.38,1.1,13,17.95,9.7,87.96,9.7,88.12,9.71H0s31.16-1.47,35.47-1.81,37.56,.32,37.56,.32l6.75-.7c9.77-1.01,15.81-11.21,11.92-20.22Z"/><rect class="cls-1" y="30.66" width="516.15" height="11.53"/><path class="cls-1" d="M585.58,8.25c-.04-.08-.06-.13-.06-.13,0,0,9.47,6.55,11.62,14.86,7.28-4.75,6.28-21.06,6.28-21.06,0,0,6.84,9.71,5.42,16.92,5.9-.68,11.71-4.32,11.71-4.32l-4.5,9.47s3.24,5.55,12.79,4.51c4.78-.52,20.56-2.07,26.32-2.07s74.53,.15,80,0c17.72-.47,30.37-7.03,30.37-7.03,0,0-.58,3.82,0,5.31,9.84,.32,33-15.51,33-15.51,0,0-3.03,7.53-9.21,13.94,11.04,8.65,41.92,7.53,54.54,1.95,24.64,5.58,40.94-5.1,40.94-5.1l9.57,4.39-8.34-14.53,15.27,8.66s.41-9.18-4.28-18.49c1.97-.04,12.36,7.76,15.77,17.8,4.1-1.27,8-9.85,8-9.85,0,0,3.42,7.38,1.1,13,17.95,9.7,87.96,9.7,88.12,9.71H493.88s31.16-1.47,35.47-1.81,37.56,.32,37.56,.32l6.75-.7c9.77-1.01,15.81-11.21,11.92-20.22Z"/><rect class="cls-1" x="493.88" y="30.66" width="516.15" height="11.53"/></g></g></svg>