<?xml version="1.0" encoding="UTF-8"?><svg id="Layer_2" xmlns="http://www.w3.org/2000/svg" viewBox="0 0 912.77 65.86"><defs><style>.cls-1{fill:#3c4145;}</style></defs><g id="Layer_3"><g><path class="cls-1" d="M62.55,38.06c-.03-.22-.07-.44-.1-.66-.04,.23-.01,.45,.1,.66Z"/><path class="cls-1" d="M758.3,39.16l-.78-.22c-.05,.16-.1,.31-.16,.46l.94-.24Z"/><path class="cls-1" d="M908.67,37.49l-16.38,2.91c-4.09,.73-9.14,.36-11.93-.82-3.44,4.62-7.57,7.21-9.74,8.08-.67,1.04-1.19,1.49-1.34,1.23-3.04-5.52-4.74-10.89-5.41-15.8-2.45-.17-5.06-.02-7.16,.42l-3.6-.33c-4.7-.43-7.57-1.96-6.61-3.5l3.69-5.92c1.68-2.69-7.7-4.65-14.61-3.06l-15.22,3.51c-3.97,.92-9.46,.69-12.6-.52l-12.03-4.62c-3.6-1.39-9.43-1.35-13.12-.38-1.93,12.39-11.64,18.54-11.69,17.54-.13-2.32-.04-4.51,.2-6.57-.64,.05-1.31,.09-1.99,.09l-9.85,.08c-.2,3.52-.91,6.62-1.75,9.1l.78,.22-.94,.24c-.06,.16-.11,.31-.17,.46,2.37,6.2,2.5,10.71,1.7,10.38-5.77-2.37-10.75-5.25-14.93-8.43-2.3-.05-4.53-.38-6.21-.96l-12.7-4.43c-5.76-2.01-16.18-.71-16.23,2.04l-.07,4.16-9.26,2.36,2.22-4.71c1.28-2.71-8.38-4.52-15.04-2.83l-14.68,3.74c-.21,.05-.43,.09-.65,.14l-.63-.22c-3.42-1.19-8.47-1.21-12.03-.46l-12.05-4.21c-1.82-.63-4.09-.94-6.36-.97-2.67,17.55-16.45,26.24-16.53,24.81-.26-4.73,.08-9.09,.86-13.01-.93,.13-1.91,.22-2.97,.24l-6.52,.15c-.56,3.01-1.34,5.68-2.18,7.92,1.58,4.12,2.45,7.7,2.81,10.29h297.03v-28.75c-1.36,.02-2.75,.14-4.1,.38Z"/><path class="cls-1" d="M444.67,52.86c-3.26,0-6.48-.49-9.68-1.13-.53-.11-1.13-.19-1.8-.24l-11.57-.87c-3.02-.23-4.99-1.17-4.52-2.16l1.79-3.79c.81-1.72-5.32-2.87-9.56-1.8l-9.33,2.38c-2.43,.62-5.94,.53-8.04-.2l-8.07-2.82c-3.66-1.28-10.28-.45-10.31,1.29l-.07,3.84c-.02,1-2.41,1.83-5.51,1.9l-7.92,.19c-1.6,5.26-4.58,10.89-9.21,16.35-.72,.85-4.48-8.58-1.6-20.17-.18,.04-.36,.07-.54,.11l-10.11,2.29c.45,2.39,.68,4.98,.61,7.77-.02,.66-4.28-1.63-7.84-6.75-.38,0-.76,0-1.13-.02,.98,1.39,1.88,2.97,2.68,4.73,.31,.68-8.1-.04-13.67-7.4l-2.04-.61c-4.23-1.26-12.68-.2-13.17,1.65l-1.08,4.07c-.14,.52-.97,1-2.23,1.39h-20.2l-10.56-.8c-4.75-.36-7.85-1.84-7.12-3.4l2.81-5.97c1.28-2.71-8.38-4.52-15.04-2.83l-14.69,3.74c-2.93,.74-6.82,.84-9.98,.32-6.17,4.89-13.61,9.36-22.38,12.96-.87,.36-.96-3.29,.54-8.93-.46,.91-.9,1.83-1.4,2.75-.53,.96-4.66-4.86-6.62-14.34-.69,.02-1.4,.05-2.12,.12l-6.31,.62c1.64,5.06,2.51,11.07,2.13,17.84-.07,1.18-9.58-4.61-14.33-16.66-4.48,.34-9.1-.42-10.82-1.82l-6.87-5.62c-4.79-3.92-12.62-3.92-17.41,0l-6.87,5.62c-1.79,1.47-6.78,2.24-11.44,1.78l-17.88-1.77c-7.18-.71-13.45,1.42-11.87,3.56l-6.63,1.69-1.97-.15c-3.22,2.24-6.9,4.28-11.1,6-.6,.24-.59-2.6,.72-6.79l-1.25-.09c-.98,3.26-2.37,6.64-4.26,10.07-.43,.79-4.06-4.47-5.31-12.72-.11-.22-.14-.44-.1-.66-.36-2.71-.45-5.72-.1-8.93-3.15-.92-8.14-1.15-12.09-.14l-14.68,3.74c-3.83,.98-9.35,.84-12.66-.32,0,0-19.39,4.95-22.72,5.37l-.21,28.75H606.2c-7.21-3.85-13.32-8.27-18.31-13h-143.22Z"/><path class="cls-1" d="M210.61,38.85l12.7,4.43c.79,.27,1.7,.49,2.68,.64,16.6-13.16,23.79-29.55,21.15-41.45-20.71,7.61-32.3,21.65-38.36,33.57-.2,.73-.39,1.45-.63,2.19,.87,.15,1.71,.35,2.46,.61Z"/><path class="cls-1" d="M210.61,38.85c-.75-.26-1.58-.46-2.46-.61-1.01,3.17-2.36,6.42-4,9.71-1.5,5.64-1.41,9.29-.54,8.93,8.77-3.6,16.21-8.06,22.38-12.96-.98-.16-1.89-.37-2.68-.64l-12.7-4.43Z"/><path class="cls-1" d="M99.31,14.27c-16.42,6.04-23.49,18.67-25.94,26.53l10.38,.78c12.02-8.34,17.31-19.44,15.56-27.32Z"/><path class="cls-1" d="M72.65,47.59c4.19-1.72,7.87-3.77,11.1-6l-10.38-.78c-1.31,4.19-1.31,7.03-.72,6.79Z"/><path class="cls-1" d="M204.92,37.91c.96,.04,1.91,.13,2.82,.27,.32-.7,.67-1.41,1.03-2.12,4.56-16.32,1.17-30.16-6.2-36.05-8.21,13.69-8.42,26.86-6.45,36.36,3.79-.09,7.1,.57,8.79,1.55Z"/><path class="cls-1" d="M202.75,50.71c.51-.92,.95-1.83,1.4-2.75,.76-2.84,1.92-6.18,3.59-9.78-.91-.14-1.86-.23-2.82-.27-1.7-.97-5.01-1.64-8.79-1.55,1.96,9.48,6.1,15.3,6.62,14.34Z"/><path class="cls-1" d="M208.15,38.24c.24-.74,.42-1.46,.63-2.19-.36,.72-.71,1.42-1.03,2.12,.14,.02,.27,.05,.41,.07Z"/><path class="cls-1" d="M207.75,38.18c-1.67,3.6-2.83,6.94-3.59,9.78,1.64-3.29,2.99-6.55,4-9.71-.14-.02-.27-.05-.41-.07Z"/><path class="cls-1" d="M65.32,31.15l-2.81,5.97c-.04,.09-.03,.18-.05,.28,.03,.22,.06,.44,.1,.66,.59,1.18,3.29,2.17,7.07,2.46l2.5,.19c3.8-12.61,1.27-23.39-4.39-27.91-3.27,5.45-4.84,10.79-5.37,15.67,2.17,.63,3.48,1.58,2.96,2.68Z"/><path class="cls-1" d="M62.45,37.4c.02-.09,0-.18,.05-.28l2.81-5.97c.52-1.1-.79-2.05-2.96-2.68-.35,3.21-.26,6.22,.1,8.93Z"/><path class="cls-1" d="M62.55,38.06c1.25,8.25,4.88,13.5,5.31,12.72,1.89-3.43,3.27-6.81,4.26-10.07l-2.5-.19c-3.78-.29-6.47-1.28-7.07-2.46Z"/><path class="cls-1" d="M187.7,37.11c-3.05-9.38-8.81-15.48-14.67-16.83-.65,7.04,.5,13.05,2.46,18.02,.21-.02,.42-.02,.63-.04l11.58-1.14Z"/><path class="cls-1" d="M189.83,54.95c.38-6.77-.49-12.78-2.13-17.84l-11.58,1.14c-.21,.02-.42,.03-.63,.04,4.76,12.04,14.27,17.84,14.33,16.66Z"/><path class="cls-1" d="M360.18,47.39l-1.66,2.1,1.58-.04c2.57-8.43,1.57-15.88-1.95-20.09-4.91,5.37-7.56,11.04-8.86,16.28,5.48-1.08,12.3-.04,10.89,1.75Z"/><path class="cls-1" d="M350.89,65.81c4.64-5.47,7.61-11.1,9.21-16.35l-1.58,.04,1.66-2.1c1.41-1.79-5.41-2.83-10.89-1.75-2.88,11.59,.88,21.02,1.6,20.17Z"/><path class="cls-1" d="M338.64,48.03c-1.73-9.22-6.86-15.2-11.92-16.2-.46,7.46,1.89,13.21,4.68,17.23,1.74-.01,3.56-.19,5.11-.54l2.12-.48Z"/><path class="cls-1" d="M339.25,55.8c.07-2.79-.16-5.38-.61-7.77l-2.12,.48c-1.55,.35-3.37,.53-5.11,.54,3.56,5.12,7.83,7.4,7.84,6.75Z"/><path class="cls-1" d="M330.28,49.04c-4.25-6.04-9.91-8.57-13.79-7.57,.77,1.9,1.74,3.5,2.79,4.9l7.27,2.16c.99,.29,2.31,.46,3.73,.52Z"/><path class="cls-1" d="M332.95,53.76c-.79-1.76-1.7-3.34-2.68-4.73-1.42-.05-2.73-.22-3.73-.52l-7.27-2.16c5.57,7.36,13.98,8.09,13.67,7.4Z"/><path class="cls-1" d="M602.16,47.97c-1.26-4.63-1.89-9.05-1.96-13.15-6.65-7.43-15.85-14.42-28.4-19.03-2.36,10.61,3.12,24.79,16.1,37.08h8.55c-4.52-1.74-1.5-4.53,5.72-4.89Z"/><path class="cls-1" d="M608.29,62.99c-2.83-5.14-4.82-10.19-6.13-15.02-7.21,.37-10.24,3.15-5.72,4.89h-8.55c4.99,4.72,11.1,9.15,18.31,13h9.53c-.36-2.59-1.24-6.18-2.81-10.29-1.97,5.24-4.25,8.12-4.63,7.43Z"/><path class="cls-1" d="M615.1,47.64c1.75-9.42,1.28-22.14-6.64-35.36-5.22,4.17-8.44,12.33-8.27,22.53,3.84,4.29,6.83,8.73,9.12,12.96l5.79-.14Z"/><path class="cls-1" d="M612.92,55.56c.84-2.24,1.62-4.91,2.18-7.92l-5.79,.14c1.47,2.72,2.67,5.35,3.6,7.79Z"/><path class="cls-1" d="M602.16,47.97c.27-.01,.53-.03,.82-.04l6.35-.15c-2.29-4.23-5.28-8.67-9.12-12.96,.07,4.1,.7,8.52,1.96,13.15Z"/><path class="cls-1" d="M602.97,47.93c-.28,0-.55,.02-.82,.04,1.32,4.84,3.31,9.89,6.13,15.02,.38,.7,2.66-2.18,4.63-7.43-.94-2.44-2.13-5.07-3.6-7.79l-6.35,.15Z"/><path class="cls-1" d="M630.29,44.49l.1-6.04c.03-1.88,4.93-3.08,9.86-3.01,.46-3.03,.6-6.31,.27-9.86-6.8,1.57-13.52,9.53-15.94,21.66,3.34-.46,5.68-1.52,5.7-2.75Z"/><path class="cls-1" d="M623.73,60.26c.08,1.42,13.86-7.27,16.53-24.81-4.93-.07-9.83,1.13-9.86,3.01l-.1,6.04c-.02,1.23-2.36,2.29-5.7,2.75-.78,3.93-1.12,8.29-.86,13.01Z"/><path class="cls-1" d="M751.81,40.81c-.58-1.33-1.1-2.66-1.54-3.96l-5.81-1.67c-5.86-1.68-3.02-4.7,4.13-5.2-.26-1.67-.4-3.3-.43-4.85-4.72-5.28-11.24-10.23-20.15-13.51-1.93,8.67,3.48,20.72,15.95,30.18,2.25,.05,4.56-.16,6.45-.64l1.4-.36Z"/><path class="cls-1" d="M757.19,39.86c-1.4,3.72-3.01,5.77-3.29,5.27-.8-1.45-1.48-2.89-2.1-4.31l-1.4,.36c-1.9,.48-4.2,.69-6.45,.64,4.19,3.17,9.17,6.06,14.93,8.43,.8,.33,.67-4.18-1.7-10.38Z"/><path class="cls-1" d="M744.46,35.19l5.81,1.67c-.79-2.36-1.34-4.66-1.68-6.87-7.16,.5-10,3.52-4.13,5.2Z"/><path class="cls-1" d="M759.27,29.83c.35-6.01-.78-13.24-5.24-20.69-3.7,2.96-5.99,8.75-5.87,15.99,1.41,1.57,2.65,3.17,3.75,4.76l7.36-.06Z"/><path class="cls-1" d="M757.04,39.48l.32-.08c.05-.15,.11-.31,.16-.46l-.79-.23c.11,.26,.21,.52,.31,.77Z"/><path class="cls-1" d="M757.19,39.86c.06-.15,.12-.3,.17-.46l-.32,.08c.05,.13,.1,.25,.15,.38Z"/><path class="cls-1" d="M756.73,38.71l.79,.23c.84-2.48,1.55-5.58,1.75-9.1l-7.36,.06c2.1,3.05,3.68,6.06,4.82,8.81Z"/><path class="cls-1" d="M748.59,29.98c.59-.04,1.2-.07,1.84-.08h1.48c-1.1-1.61-2.34-3.2-3.75-4.77,.03,1.55,.17,3.18,.43,4.85Z"/><path class="cls-1" d="M756.73,38.71l-6.46-1.85c.43,1.3,.96,2.63,1.54,3.96l5.23-1.33c-.1-.26-.21-.51-.31-.77Z"/><path class="cls-1" d="M751.81,40.81c.62,1.43,1.3,2.86,2.1,4.31,.27,.5,1.89-1.55,3.29-5.27-.05-.12-.1-.25-.15-.38l-5.23,1.33Z"/><path class="cls-1" d="M751.91,29.89h-1.48c-.64,.02-1.25,.05-1.84,.09,.34,2.21,.89,4.51,1.68,6.87l6.46,1.85c-1.14-2.75-2.71-5.76-4.82-8.81Z"/><path class="cls-1" d="M870.51,34.78l.59,.05c.68,.06,1.31,.15,1.89,.25,.54-1.01,1.11-1.96,1.72-2.84,.11-5.73-1.16-12.44-5.3-19.34-4.39,3.51-6.79,11.01-5.53,20.18,2.22,.15,4.32,.56,5.8,1.28l.83,.41Z"/><path class="cls-1" d="M870.62,47.66c-.95,.38-1.53,.45-1.5,.21,.6-5,2.01-9.29,3.86-12.78-.58-.1-1.21-.18-1.89-.25l-.59-.05-.83-.41c-1.47-.72-3.57-1.13-5.8-1.28,.67,4.91,2.37,10.28,5.41,15.8,.14,.26,.67-.19,1.34-1.23Z"/><path class="cls-1" d="M877.72,38.32l2.23,1.1c.12,.06,.27,.11,.4,.16,2.72-3.65,5.02-8.55,5.54-14.92-3.76,.19-7.92,2.87-11.19,7.59-.02,1.09-.09,2.15-.2,3.16,2.7,.71,3.84,1.86,3.22,2.91Z"/><path class="cls-1" d="M877.72,38.32c.61-1.06-.52-2.2-3.22-2.91-.63,5.75-2.54,10.18-3.88,12.25,2.17-.87,6.29-3.46,9.74-8.08-.13-.05-.28-.1-.4-.16l-2.23-1.1Z"/><path class="cls-1" d="M874.5,35.41c.11-1.02,.18-2.07,.2-3.16-.61,.88-1.18,1.82-1.72,2.84,.55,.09,1.06,.2,1.52,.32Z"/><path class="cls-1" d="M872.98,35.09c-1.86,3.5-3.26,7.78-3.86,12.78-.03,.24,.55,.17,1.5-.21,1.34-2.07,3.25-6.5,3.88-12.25-.46-.12-.97-.23-1.52-.32Z"/><path class="cls-1" d="M778.23,26.89l.99-6.03c.15-.93,1.49-1.67,3.39-2.17,.34-2.17,.46-4.51,.23-7.07-5.31,1.22-10.53,7.94-11.72,18.03,3.92-.31,6.89-1.42,7.11-2.77Z"/><path class="cls-1" d="M770.92,36.23c.06,1.01,9.77-5.15,11.69-17.54-1.9,.5-3.24,1.24-3.39,2.17l-.99,6.03c-.22,1.35-3.19,2.46-7.11,2.77-.24,2.06-.33,4.25-.2,6.57Z"/></g></g></svg>