<?xml version="1.0" encoding="UTF-8"?><svg id="Layer_2" xmlns="http://www.w3.org/2000/svg" viewBox="0 0 912.47 40.42"><defs><style>.cls-1{fill:#39797e;}</style></defs><g id="Layer_1-2"><path class="cls-1" d="M883.85,35.49V4.46l-10.19,17.65V0h-98.64l-9.98,22.11-11.39-22.11h-4.47c2.71,14.52,6.83,36.8,6.32,35.49-.61-1.56-11.3-25.93-15.49-35.49h-132.62l-2.84,14.46-7.09-14.46h-40.51c2.05,5.63,5.75,14.19,11,20.12-8.57-2.34-21.35-16.11-24.94-20.12h-17.16l-9.86,28.42L507.69,0h-70.57s-12.81,31.26-12.81,35.49V4.46l-10.19,17.65V0h-98.64l-9.98,22.11L294.11,0h-4.47c2.71,14.52,6.83,36.8,6.32,35.49-.61-1.56-11.3-25.93-15.49-35.49H147.85l-2.84,14.46-7.09-14.46h-40.51c2.05,5.63,5.75,14.19,11,20.12-8.57-2.34-21.35-16.11-24.94-20.12h-17.16l-9.86,28.42L48.15,0H0V40.42H912.47V0h-15.82s-12.81,31.26-12.81,35.49Z"/></g></svg>