<?xml version="1.0" encoding="UTF-8"?><svg id="Layer_2" xmlns="http://www.w3.org/2000/svg" viewBox="0 0 888.6 47.13"><defs><style>.cls-1{fill:#10242c;}</style></defs><g id="Layer_3"><path class="cls-1" d="M853,3.79c-2.7,2.4-7.12,5.98-11.85,8.37-1.06,.54-2.31,.65-3.43,.24-3.91-1.46-7.84-4.3-10.31-6.31-1.58-1.28-3.81-1.32-5.42-.08-6.45,4.93-22.21,16.91-28.93,21.24-1.32,.85-3,.92-4.4,.19-4.27-2.25-10.49-5.31-13.7-6.88-1.31-.64-2.84-.59-4.1,.13l-10.19,5.82c-1.59,.91-3.58,.73-4.98-.44-3.95-3.29-12.32-10.62-21.31-20.81-1.82-2.06-5.08-1.96-6.75,.23-5.92,7.73-15.78,21.24-20.48,27.7-1.45,2-4.26,2.4-6.22,.89l-7.89-6.08c-1.84-1.42-4.46-1.16-5.99,.6-2.03,2.33-5.06,5.71-8.57,9.26-1.5,1.51-3.86,1.74-5.61,.53-11.84-8.18-36.99-29.79-46.03-37.36-1.55-1.3-3.79-1.37-5.42-.16-6.94,5.14-21.8,16.44-31.62,21.76-1.37,.74-3.03,.7-4.36-.11-3.76-2.26-7.69-4.44-10.04-5.72-1.34-.73-2.96-.71-4.28,.06-5.92,3.42-22.73,13.11-30.69,17.21-1.3,.67-2.85,.65-4.12-.06-8.29-4.63-20.79-15.53-26.09-20.29-1.44-1.29-3.54-1.49-5.19-.49-.25,.15-.52,.31-.81,.49-1.67,.98-3.78,.76-5.21-.54-3.67-3.35-6.22-5.66-9.46-8.9-1.64-1.64-4.28-1.73-6.01-.19-12.05,10.7-37.4,31-37.4,31l-.02-.74-.02,.74L407.31,3.67c-1.66-1.35-4.06-1.3-5.66,.12-2.7,2.4-7.12,5.98-11.85,8.37-1.06,.54-2.31,.65-3.43,.24-3.91-1.46-7.84-4.3-10.31-6.31-1.58-1.28-3.81-1.32-5.42-.08-6.45,4.93-22.21,16.91-28.93,21.24-1.32,.85-3,.92-4.4,.19-4.27-2.25-10.49-5.31-13.7-6.88-1.31-.64-2.84-.59-4.1,.13l-10.19,5.82c-1.59,.91-3.58,.73-4.98-.44-3.95-3.29-12.32-10.62-21.31-20.81-1.82-2.06-5.08-1.96-6.75,.23-5.92,7.73-15.78,21.24-20.48,27.7-1.45,2-4.26,2.4-6.22,.89l-7.89-6.08c-1.84-1.42-4.46-1.16-5.99,.6-2.03,2.33-5.06,5.71-8.57,9.26-1.5,1.51-3.86,1.74-5.61,.53-11.84-8.18-36.99-29.79-46.03-37.36-1.55-1.3-3.79-1.37-5.42-.16-6.94,5.14-21.8,16.44-31.62,21.76-1.37,.74-3.03,.7-4.36-.11-3.76-2.26-7.69-4.44-10.04-5.72-1.34-.73-2.96-.71-4.28,.06-5.92,3.42-22.73,13.11-30.69,17.21-1.3,.67-2.85,.65-4.12-.06-8.29-4.63-20.79-15.53-26.09-20.29-1.44-1.29-3.54-1.49-5.19-.49-.25,.15-.52,.31-.81,.49-1.67,.98-3.78,.76-5.21-.54-3.67-3.35-6.22-5.66-9.46-8.9-1.64-1.64-4.28-1.73-6.01-.19C23.53,11.73,8.14,21.85,0,27.9v19.23H888.6V27.9l-29.93-24.24c-1.66-1.35-4.06-1.3-5.66,.12Z"/></g></svg>