<?xml version="1.0" encoding="UTF-8"?><svg id="Layer_2" xmlns="http://www.w3.org/2000/svg" viewBox="0 0 992.21 53.8"><defs><style>.cls-1{fill:#55271a;}</style></defs><g id="Layer_1-2"><g><g><polygon class="cls-1" points="80.79 12.98 75.91 12.98 75.91 29.37 69.17 29.37 69.17 45.6 80.79 45.6 80.79 12.98"/><rect class="cls-1" x="57.67" y="32.11" width="8.09" height="13.49"/><rect class="cls-1" x="168.22" y="29.37" width="7.51" height="16.22"/><rect class="cls-1" x="188.03" y="37.23" width="9.56" height="8.37"/><rect class="cls-1" x="222.87" y="29.37" width="20.49" height="16.22"/><rect class="cls-1" x="257.71" y="37.23" width="2.73" height="8.37"/><rect class="cls-1" x="413.28" y="40.99" width="7.51" height="4.61"/><rect class="cls-1" x="423.71" y="24.59" width="10.93" height="21.01"/><rect class="cls-1" x="455.13" y="24.59" width="3.42" height="21.01"/><rect class="cls-1" x="439.42" y="32.11" width="3.49" height="13.49"/><rect class="cls-1" x="487.23" y="29.37" width="8.93" height="16.22"/><polygon class="cls-1" points="602.27 45.6 602.27 15.48 594.11 15.48 594.11 0 554.18 0 554.18 45.6 594.11 45.6 602.27 45.6"/><rect class="cls-1" x="633.49" y="32.11" width="3.64" height="13.49"/><polygon class="cls-1" points="126.79 22.43 109.7 22.43 109.7 8.65 98.77 8.65 98.77 45.6 126.79 45.6 126.79 22.43"/><rect class="cls-1" x="17.08" y="7.4" width="10.93" height="38.2"/><rect class="cls-1" y="18.98" width="10.93" height="26.62"/><rect class="cls-1" x="131.11" y="38.94" width="7.33" height="6.66"/><rect class="cls-1" x="150.24" y="33.36" width="7.74" height="11.27"/><polygon class="cls-1" points="313.73 32.11 307.58 32.11 307.58 10.93 285.72 10.93 285.72 35.09 278.66 35.09 278.66 45.6 313.73 45.6 313.73 32.11"/><polygon class="cls-1" points="359.49 29.37 355.62 29.37 355.62 18.98 348.78 18.98 348.78 29.37 341.05 29.37 341.05 45.6 359.49 45.6 359.49 29.37"/><rect class="cls-1" x="372.93" y="33.36" width="3.64" height="12.24"/><rect class="cls-1" x="406.17" y="35.09" width="5.01" height="10.5"/><rect class="cls-1" x="519.53" y="24.59" width="24.93" height="21.01"/><rect class="cls-1" x="967.27" y="24.59" width="24.93" height="21.01"/><rect class="cls-1" x="607.92" y="25.54" width="7.74" height="20.06"/><rect class="cls-1" x="658.01" y="35.09" width="6.38" height="10.5"/><rect class="cls-1" x="864.53" y="37.23" width="9.56" height="8.37"/><rect class="cls-1" x="763.01" y="29.37" width="20.49" height="16.22"/><rect class="cls-1" x="745.93" y="37.23" width="2.73" height="8.37"/><rect class="cls-1" x="882.11" y="40.99" width="7.51" height="4.61"/><rect class="cls-1" x="868.27" y="24.59" width="10.93" height="21.01"/><rect class="cls-1" x="844.36" y="24.59" width="3.42" height="21.01"/><rect class="cls-1" x="860" y="32.11" width="3.49" height="13.49"/><rect class="cls-1" x="806.74" y="29.37" width="8.93" height="16.22"/><rect class="cls-1" x="721.52" y="32.11" width="3.64" height="13.49"/><polygon class="cls-1" points="692.65 32.11 698.79 32.11 698.79 10.93 720.66 10.93 720.66 35.09 727.72 35.09 727.72 45.6 692.65 45.6 692.65 32.11"/><polygon class="cls-1" points="943.41 29.37 947.28 29.37 947.28 18.98 954.13 18.98 954.13 29.37 961.85 29.37 961.85 45.6 943.41 45.6 943.41 29.37"/><rect class="cls-1" x="926.33" y="33.36" width="3.64" height="12.24"/><rect class="cls-1" x="891.72" y="35.09" width="5.01" height="10.5"/><rect class="cls-1" x="758.44" y="24.59" width="24.93" height="21.01"/><rect class="cls-1" x="742.99" y="25.54" width="7.74" height="20.06"/><rect class="cls-1" x="694.26" y="35.09" width="6.38" height="10.5"/></g><rect class="cls-1" y="37.23" width="992.21" height="16.57"/></g></g></svg>